<svg id="OBJECTS" xmlns="http://www.w3.org/2000/svg" xmlns:xlink="http://www.w3.org/1999/xlink" viewBox="0 0 643.02 474.47"><defs><style>.cls-1,.cls-11,.cls-13,.cls-15,.cls-16,.cls-18,.cls-2,.cls-8{fill:none;}.cls-2{stroke:#ded8d5;stroke-width:1.97px;}.cls-11,.cls-18,.cls-2{stroke-miterlimit:10;}.cls-3{fill:#ffb1a5;}.cls-4{fill:#ead254;}.cls-5{fill:#00857b;}.cls-6{fill:#ededed;}.cls-7{fill:#35115b;}.cls-11,.cls-16,.cls-18,.cls-8{stroke:#fff;}.cls-13,.cls-15,.cls-16,.cls-8{stroke-linecap:round;stroke-linejoin:round;}.cls-8{stroke-width:1.65px;}.cls-9{fill:#fff;}.cls-10{fill:#18cf99;}.cls-11{stroke-width:1.18px;}.cls-12{clip-path:url(#clip-path);}.cls-13,.cls-15{stroke:#282828;}.cls-13,.cls-16{stroke-width:1.4px;}.cls-14{fill:#f3978e;}.cls-15{stroke-width:1.53px;}.cls-17{fill:#282828;}.cls-18{stroke-width:1.95px;}</style><clipPath id="clip-path" transform="translate(-55.13 -35.3)"><rect class="cls-1" x="171.98" y="101.42" width="459.27" height="332.68"/></clipPath></defs><line class="cls-2" x1="70.85" y1="123.37" x2="570.22" y2="123.37"/><rect class="cls-2" x="70.85" y="90.64" width="499.37" height="308.96" rx="6.52"/><path class="cls-3" d="M158.89,142.64a4.57,4.57,0,1,1-4.57-4.56A4.57,4.57,0,0,1,158.89,142.64Z" transform="translate(-55.13 -35.3)"/><path class="cls-4" d="M176.64,142.64a4.57,4.57,0,1,1-4.57-4.56A4.57,4.57,0,0,1,176.64,142.64Z" transform="translate(-55.13 -35.3)"/><path class="cls-5" d="M194.39,142.64a4.57,4.57,0,1,1-4.57-4.56A4.56,4.56,0,0,1,194.39,142.64Z" transform="translate(-55.13 -35.3)"/><rect class="cls-6" x="511.74" y="113.11" width="129.34" height="120.52" rx="5.99"/><rect class="cls-2" x="511.74" y="113.11" width="129.34" height="120.52" rx="5.99"/><rect class="cls-7" x="595.21" y="175.55" width="73.04" height="62.03" rx="6.02" transform="translate(1208.33 377.83) rotate(180)"/><polygon class="cls-8" points="593.26 181.58 564.71 181.58 559.56 181.58 559.56 158.97 593.26 158.97 593.26 164.62 593.26 181.58"/><polyline class="cls-8" points="559.56 158.97 576.41 172.25 593.26 158.97"/><rect class="cls-6" x="0.98" y="215.51" width="123.35" height="109.01" rx="5.71"/><rect class="cls-2" x="0.98" y="215.51" width="123.35" height="109.01" rx="5.71"/><rect class="cls-7" x="26.71" y="234.18" width="71.33" height="69.34" rx="6.64"/><path class="cls-9" d="M103.67,290.54a20.17,20.17,0,1,0,28.52,0A20.25,20.25,0,0,0,103.67,290.54Zm28.47,2.91h-6.42a41.93,41.93,0,0,0-2.5-6.06A18.14,18.14,0,0,1,132.14,293.45Zm-21.61,10.17a32.74,32.74,0,0,1,1-7.82h12.9a32.75,32.75,0,0,1,1,7.82ZM125.26,306a38.24,38.24,0,0,1-1.39,7.82H112a38.21,38.21,0,0,1-1.38-7.82Zm-7.33-19.37a17.87,17.87,0,0,1,2.85.22,36.75,36.75,0,0,1,2.92,6.62H112.16a37.15,37.15,0,0,1,2.92-6.62A17.87,17.87,0,0,1,117.93,286.61Zm-5.29.78a41.93,41.93,0,0,0-2.5,6.06h-6.42A18.18,18.18,0,0,1,112.64,287.39Zm-10.52,8.41h7.36a34.47,34.47,0,0,0-1,7.82H99.78A18.11,18.11,0,0,1,102.12,295.8Zm0,18A18.07,18.07,0,0,1,99.78,306h8.7a37.86,37.86,0,0,0,1.23,7.82Zm1.6,2.36h6.69a48.28,48.28,0,0,0,2.48,6.13A18.26,18.26,0,0,1,103.72,316.16ZM117.93,323a18.65,18.65,0,0,1-2.38-.16,54.4,54.4,0,0,1-2.82-6.68h10.4a52.89,52.89,0,0,1-2.82,6.68A18.65,18.65,0,0,1,117.93,323Zm5-.71a49.9,49.9,0,0,0,2.49-6.13h6.68A18.21,18.21,0,0,1,123,322.29Zm10.78-8.49h-7.6a37.86,37.86,0,0,0,1.23-7.82h8.71A18.2,18.2,0,0,1,133.75,313.8Zm2.34-10.18h-8.67a35.64,35.64,0,0,0-1-7.82h7.36A18.25,18.25,0,0,1,136.09,303.62Z" transform="translate(-55.13 -35.3)"/><path class="cls-7" d="M167.08,97.43H65.68a3.79,3.79,0,0,1-3.79-3.79h0a3.79,3.79,0,0,1,3.79-3.79h101.4a3.79,3.79,0,0,1,3.79,3.79h0A3.79,3.79,0,0,1,167.08,97.43Z" transform="translate(-55.13 -35.3)"/><path class="cls-10" d="M694.35,345.12H645.13a3.8,3.8,0,0,1-3.79-3.8h0a3.79,3.79,0,0,1,3.79-3.79h49.22a3.79,3.79,0,0,1,3.79,3.79h0A3.8,3.8,0,0,1,694.35,345.12Z" transform="translate(-55.13 -35.3)"/><rect class="cls-7" x="595.88" y="342.32" width="11.74" height="11.37" rx="2.86"/><rect class="cls-3" x="25.83" y="368.6" width="11.74" height="11.37" rx="2.86"/><rect class="cls-7" x="391.89" y="27.75" width="106.11" height="30.46" rx="3.01"/><line class="cls-11" x1="406.34" y1="38.6" x2="477.52" y2="38.6"/><line class="cls-11" x1="406.34" y1="45.91" x2="435.33" y2="45.91"/><polygon class="cls-7" points="403.44 54.76 403.44 66.64 418.37 54.76 403.44 54.76"/><path class="cls-10" d="M198.58,0h50.51a6.46,6.46,0,0,1,6.46,6.46v47.1A6.46,6.46,0,0,1,249.09,60H200.64a8.52,8.52,0,0,1-8.52-8.52v-45A6.46,6.46,0,0,1,198.58,0Z"/><path class="cls-9" d="M293.76,69.75l-3.61-3.61a3.14,3.14,0,0,0-2.32-1.09,3.31,3.31,0,0,0-2.32,1l-2.07,2.06-.38-.19c-.26-.13-.45-.2-.65-.32a22.42,22.42,0,0,1-5.35-4.91,11.36,11.36,0,0,1-1.68-2.64c.52-.45,1-1,1.42-1.42l.58-.58a3.14,3.14,0,0,0,0-4.77l-1.8-1.81a6.21,6.21,0,0,1-.59-.64l-1.22-1.23a3.37,3.37,0,0,0-2.32-1,3.19,3.19,0,0,0-2.32,1l-2.26,2.26a5.12,5.12,0,0,0-1.48,3.16,11.77,11.77,0,0,0,.83,4.9,26.65,26.65,0,0,0,5,8.45,31.32,31.32,0,0,0,10.32,8.06,17.1,17.1,0,0,0,5.81,1.74h.45a5.13,5.13,0,0,0,3.87-1.67l.06-.07a10.57,10.57,0,0,1,1.16-1.16l.84-.84A3.23,3.23,0,0,0,293.76,69.75Zm-1.48,3.36-.77.77c-.46.39-.84.84-1.29,1.29a3.07,3.07,0,0,1-2.33,1h-.32a13.54,13.54,0,0,1-5-1.55A29.33,29.33,0,0,1,272.93,67a27.85,27.85,0,0,1-4.71-7.8,8,8,0,0,1-.77-4,2.71,2.71,0,0,1,.9-1.87l2.19-2.19a1.39,1.39,0,0,1,.91-.45,1.23,1.23,0,0,1,.9.45l1.16,1.16a6.63,6.63,0,0,0,.65.65l1.8,1.8a1.47,1.47,0,0,1,.45.9,1.35,1.35,0,0,1-.45.91l-.58.58-1.61,1.61-.07.06a1.43,1.43,0,0,0-.38,1.62v.06A14.77,14.77,0,0,0,275.45,64a23.88,23.88,0,0,0,5.87,5.36,5.64,5.64,0,0,0,.83.45,5.64,5.64,0,0,1,.65.32l.06.07a1.49,1.49,0,0,0,1.81-.33l2.26-2.25a1.31,1.31,0,0,1,.9-.46,1.36,1.36,0,0,1,.84.46l3.61,3.61A1.22,1.22,0,0,1,292.28,73.11Z" transform="translate(-55.13 -35.3)"/><g class="cls-12"><polygon class="cls-10" points="261.29 366.06 261.35 474.47 314.98 474.47 319.1 366.06 261.29 366.06"/><polygon class="cls-10" points="377.73 366.06 377.67 474.47 324.04 474.47 319.92 366.06 377.73 366.06"/><rect class="cls-10" x="292.99" y="366.06" width="55.45" height="37.66"/><line class="cls-13" x1="300.74" y1="403.72" x2="338.98" y2="403.72"/><path class="cls-3" d="M466.74,306.76c3.32,36.74-.19,63.5.78,131.09l-32,1.35-4.77-126.53Z" transform="translate(-55.13 -35.3)"/><path class="cls-14" d="M434.69,335.43s19.82-1.82,33.38-10.76l-.36-7.86-33,4.5Z" transform="translate(-55.13 -35.3)"/><path class="cls-7" d="M402.89,222.19s63,15.83,74.37,95.75c0,0-30.81,13.36-61.69,7.61l6.94-26.73Z" transform="translate(-55.13 -35.3)"/><path class="cls-3" d="M214.83,255.42l46.88,55.36-14.34,40.4s-35.63-49.54-51.64-87.83Z" transform="translate(-55.13 -35.3)"/><path class="cls-3" d="M216.37,257.41s-16.46,9.31-20.64,5.94c-7.32-5.88-13.37-27.4-13.37-27.4s30.79-11.6,30.5-11.15S216.37,257.41,216.37,257.41Z" transform="translate(-55.13 -35.3)"/><path class="cls-3" d="M216.37,257.41c-.29-1.65,6.11-19.53,8.3-26.23a3,3,0,0,0-2.34-3.73h0a3.42,3.42,0,0,0-3.81,1.56l-7.72,13.2Z" transform="translate(-55.13 -35.3)"/><path class="cls-3" d="M215.81,238.09l-5.3-26.37a3.33,3.33,0,0,0-3.84-2.64h0a2.88,2.88,0,0,0-2.35,3.17l2.32,19.64Z" transform="translate(-55.13 -35.3)"/><path class="cls-3" d="M205.27,228.36l-7.2-18.83a3.32,3.32,0,0,0-4.09-2h0a2.85,2.85,0,0,0-1.88,3.38l5.34,21.76Z" transform="translate(-55.13 -35.3)"/><path class="cls-3" d="M197.53,233.91l-9.11-18.5a3.6,3.6,0,0,0-4.62-1.77h0a3.15,3.15,0,0,0-1.63,4.16l7.27,17.47Z" transform="translate(-55.13 -35.3)"/><path class="cls-3" d="M182.36,236l-7.14-11.33a2.56,2.56,0,0,1,1.25-3.43h0a2.94,2.94,0,0,1,3.57,1l9.4,13Z" transform="translate(-55.13 -35.3)"/><path class="cls-15" d="M214.37,236.11s-10.73-1.13-11.84,13.17" transform="translate(-55.13 -35.3)"/><path class="cls-3" d="M237.86,332.28s8.82,30.51,26.39,26.46,44.95-41.58,44.95-41.58l-6.13-64.08-49.31,60.7Z" transform="translate(-55.13 -35.3)"/><path class="cls-14" d="M269.05,294.92s16.65,25.12,30.85,34l9.3-11.73-35.86-27.74Z" transform="translate(-55.13 -35.3)"/><path class="cls-7" d="M341.89,220.8S293,231.82,267,288.63c0,0,15.74,23.71,41,34.25l16.9-20.69Z" transform="translate(-55.13 -35.3)"/><path class="cls-7" d="M341.89,220.63a122.29,122.29,0,0,0-31.09,22.78l3.76,166.06H434.89l-.39-165.2s-15.17-14.85-31.61-22.08C388.93,216,355.47,213.67,341.89,220.63Z" transform="translate(-55.13 -35.3)"/><path class="cls-16" d="M327,232.77h33.47a0,0,0,0,1,0,0V249.5a16.74,16.74,0,0,1-16.74,16.74h0A16.74,16.74,0,0,1,327,249.5V232.77a0,0,0,0,1,0,0Z"/><line class="cls-16" x1="379.57" y1="290.86" x2="381.13" y2="236.54"/><line class="cls-16" x1="257.52" y1="281.81" x2="254.92" y2="234.72"/><path class="cls-17" d="M343.3,160l-5-24.81c-.29-2-1.07-5.14-.11-8.07,1.59-4.85,7.43-14.16,17.41-9.9l2.16,9.83s-10.37,2.09-14.53,15.64Z" transform="translate(-55.13 -35.3)"/><path class="cls-17" d="M354.85,122.31c-.18,3.26-3.06,17.53-13.17,22.73C341.68,145,332.81,126,354.85,122.31Z" transform="translate(-55.13 -35.3)"/><path class="cls-3" d="M390.35,216.06h0V173.92H351.5v42.14l-11.56,5.27s2.71,17.46,31.39,17.85,31.56-17,31.56-17Z" transform="translate(-55.13 -35.3)"/><path class="cls-17" d="M355.59,117.19s7.13-18.81,29.11-8.81c13.31,6.05,17,14.17,18.62,19.92a23.07,23.07,0,0,1,.59,6.7l-5.32,25-20.76-34.55L357.75,127Z" transform="translate(-55.13 -35.3)"/><path class="cls-14" d="M398.59,160s2.62-4.16,8-2.11,3,15.16-5.14,16.84a6.41,6.41,0,0,1-5.18-1.36S398.28,163.65,398.59,160Z" transform="translate(-55.13 -35.3)"/><path class="cls-13" d="M405.54,162.49s-4.52-1.51-7.73,5.15" transform="translate(-55.13 -35.3)"/><path class="cls-14" d="M343.3,160s-2.62-4.16-8-2.11-3,15.16,5.15,16.84a6.41,6.41,0,0,0,5.18-1.36S343.62,163.65,343.3,160Z" transform="translate(-55.13 -35.3)"/><path class="cls-13" d="M336.35,162.49s4.53-1.51,7.74,5.15" transform="translate(-55.13 -35.3)"/><path class="cls-3" d="M399.13,147.53c0,7.9-.77,24.45-5.63,34.27-4.56,9.22-12.11,14.18-22,14.47s-17.27-3.51-23.18-15.48-5.63-33.12-5.63-33.12,0-28.25,27.92-28.25C400,119.42,399.13,147.53,399.13,147.53Z" transform="translate(-55.13 -35.3)"/><path class="cls-17" d="M351.79,186.69s3.26,16.5,17.62,18.4c16.53,2.18,20.94-18,20.94-18s-7.31,9.15-18.86,9.16A25.27,25.27,0,0,1,351.79,186.69Z" transform="translate(-55.13 -35.3)"/><path class="cls-13" d="M368.92,159.25v6.54a2.15,2.15,0,0,0,.15.8,2.1,2.1,0,0,0,2.51,1.16l2.17-.57" transform="translate(-55.13 -35.3)"/><path class="cls-17" d="M360.67,156.13a2.54,2.54,0,1,1-2.54-2.54A2.54,2.54,0,0,1,360.67,156.13Z" transform="translate(-55.13 -35.3)"/><path class="cls-17" d="M384.5,156.13a2.54,2.54,0,1,1-2.54-2.54A2.54,2.54,0,0,1,384.5,156.13Z" transform="translate(-55.13 -35.3)"/><path class="cls-17" d="M375.45,143.49l17.09,4.41s-.77-4.79-7.76-6.53S375.45,143.49,375.45,143.49Z" transform="translate(-55.13 -35.3)"/><path class="cls-17" d="M364.84,143.49l-17.09,4.41s.77-4.79,7.76-6.53S364.84,143.49,364.84,143.49Z" transform="translate(-55.13 -35.3)"/><path class="cls-13" d="M361.44,172.38s2.52,1.93,9.15,1.93a23.16,23.16,0,0,0,9.79-1.93" transform="translate(-55.13 -35.3)"/><circle class="cls-18" cx="302.32" cy="121.57" r="10.8"/><circle class="cls-18" cx="328.85" cy="121.57" r="10.8"/><path class="cls-18" d="M368.25,156.87s2.55-2.38,4.93,0" transform="translate(-55.13 -35.3)"/><line class="cls-18" x1="291.52" y1="121.57" x2="287.9" y2="121.48"/><line class="cls-18" x1="339.65" y1="121.57" x2="343.69" y2="121.51"/><path class="cls-17" d="M351.79,123s5.19,14.73,28.6,14.28c15.9-.31,19.7,11.2,19.7,11.2s-2.77-25.72-3.5-25.48-24.2-6.27-24.2-6.27Z" transform="translate(-55.13 -35.3)"/></g></svg>